<?xml version="1.0" encoding="utf-8"?>
<!-- Svg Vector Icons : http://www.onlinewebfonts.com/icon -->
<!DOCTYPE svg PUBLIC "-//W3C//DTD SVG 1.1//EN" "http://www.w3.org/Graphics/SVG/1.1/DTD/svg11.dtd">
<svg version="1.1" xmlns="http://www.w3.org/2000/svg" xmlns:xlink="http://www.w3.org/1999/xlink" x="0px" y="0px" viewBox="0 0 1000 1000" enable-background="new 0 0 1000 1000" xml:space="preserve">
<metadata> Svg Vector Icons : http://www.onlinewebfonts.com/icon </metadata>
<g><path d="M974.1,575.5c0,26.7-21.7,48.4-48.4,48.4h-1.4l-18.3,310.4c0,26.7-7.9,48.4-34.6,48.4H803c-26.7,0-37.9-21.7-37.9-48.4l-18.3-310.4h-10c-26.7,0-48.3-21.7-48.3-48.4l-20.1-294.9c0-26.7,21.7-48.4,48.4-48.4h224.9c26.7,0,48.4,21.7,48.4,48.4L974.1,575.5z M835.6,209.4c-53,0-96-43-96-96c0-53,43-96,96-96c53,0,96,43,96,96C931.6,166.4,888.6,209.4,835.6,209.4z M668.3,816.1c0,46-37.3,41.7-83.4,41.7v48.2c0,27.4-27.4,49.5-54.7,49.5c-27.3,0-49.5-22.1-49.5-49.5v-48.2H191.6v50.8c0,25.9-30.1,45.6-56,45.6c-25.9,0-50.8-19.7-50.8-45.6v-50.8c-46.1,0-74.8,4.3-74.8-41.7V636.3c0-45.4,28-111.3,72.9-113.2l57.8-125.7c23-45.8,65.9-81.6,112-81.6H425c46,0,98.8,36,121,83.4l50,125c40.9,8.8,72.4,64.5,72.4,106.8V816.1z M86.1,646.1c0,34.2,27.7,61.9,61.9,61.9c34.2,0,61.9-27.7,61.9-61.9c0-34.2-27.7-61.8-61.9-61.8C113.8,584.2,86.1,611.9,86.1,646.1z M392.1,368.4l-108.4,0.7c-107,18-118.5,116-118,147.8l356.5,0.1C522.2,489.5,515.3,385.8,392.1,368.4z M529.6,584.2c-34.2,0-61.9,27.7-61.9,61.8c0,34.2,27.7,61.9,61.9,61.9s61.9-27.7,61.9-61.9C591.5,611.9,563.8,584.2,529.6,584.2z"/></g>
</svg>